<svg xmlns="http://www.w3.org/2000/svg" width="24" height="24" viewBox="0 0 24 24" fill="none">
  <g clip-path="url(#clip0_1_27)">
    <path d="M9.99998 19.0001V14.0001H14V19.0001C14 19.5501 14.45 20.0001 15 20.0001H18C18.55 20.0001 19 19.5501 19 19.0001V12.0001H20.7C21.16 12.0001 21.38 11.4301 21.03 11.1301L12.67 3.60012C12.29 3.26012 11.71 3.26012 11.33 3.60012L2.96998 11.1301C2.62998 11.4301 2.83998 12.0001 3.29998 12.0001H4.99998V19.0001C4.99998 19.5501 5.44998 20.0001 5.99998 20.0001H8.99998C9.54998 20.0001 9.99998 19.5501 9.99998 19.0001Z" fill="#828282"/>
  </g>
  <defs>
    <clipPath id="clip0_1_27">
      <rect width="24" height="24" fill="white"/>
    </clipPath>
  </defs>
</svg>