<svg xmlns="http://www.w3.org/2000/svg" width="24" height="24" viewBox="0 0 24 24" fill="none">
  <g clip-path="url(#clip0_1_54)">
    <path d="M20 4.00012H4C2.9 4.00012 2.01 4.90012 2.01 6.00012L2 18.0001C2 19.1001 2.9 20.0001 4 20.0001H20C21.1 20.0001 22 19.1001 22 18.0001V6.00012C22 4.90012 21.1 4.00012 20 4.00012ZM19.6 8.25012L12.53 12.6701C12.21 12.8701 11.79 12.8701 11.47 12.6701L4.4 8.25012C4.15 8.09012 4 7.82012 4 7.53012C4 6.86012 4.73 6.46012 5.3 6.81012L12 11.0001L18.7 6.81012C19.27 6.46012 20 6.86012 20 7.53012C20 7.82012 19.85 8.09012 19.6 8.25012Z" fill="#828282"/>
  </g>
  <defs>
    <clipPath id="clip0_1_54">
      <rect width="24" height="24" fill="white"/>
    </clipPath>
  </defs>
</svg>