<svg xmlns="http://www.w3.org/2000/svg" width="24" height="25" viewBox="0 0 24 25" fill="none">
  <g clip-path="url(#clip0_1_21)">
    <path d="M12 2.98663C6.48 2.98663 2 7.46663 2 12.9866C2 18.5066 6.48 22.9866 12 22.9866C17.52 22.9866 22 18.5066 22 12.9866C22 7.46663 17.52 2.98663 12 2.98663ZM12 5.98663C13.66 5.98663 15 7.32663 15 8.98663C15 10.6466 13.66 11.9866 12 11.9866C10.34 11.9866 9 10.6466 9 8.98663C9 7.32663 10.34 5.98663 12 5.98663ZM12 20.1866C9.5 20.1866 7.29 18.9066 6 16.9666C6.03 14.9766 10 13.8866 12 13.8866C13.99 13.8866 17.97 14.9766 18 16.9666C16.71 18.9066 14.5 20.1866 12 20.1866Z" fill="#828282"/>
  </g>
  <defs>
    <clipPath id="clip0_1_21">
      <rect width="24" height="24" fill="white" transform="translate(0 0.986633)"/>
    </clipPath>
  </defs>
</svg>