<svg xmlns="http://www.w3.org/2000/svg" width="24" height="24" viewBox="0 0 24 24" fill="none">
  <g clip-path="url(#clip0_1_61)">
    <path d="M19.23 15.2601L16.69 14.9701C16.08 14.9001 15.48 15.1101 15.05 15.5401L13.21 17.3801C10.38 15.9401 8.05998 13.6301 6.61998 10.7901L8.46998 8.9401C8.89998 8.5101 9.10998 7.9101 9.03998 7.3001L8.74998 4.7801C8.62998 3.7701 7.77998 3.0101 6.75998 3.0101H5.02998C3.89998 3.0101 2.95998 3.9501 3.02998 5.0801C3.55998 13.6201 10.39 20.4401 18.92 20.9701C20.05 21.0401 20.99 20.1001 20.99 18.9701V17.2401C21 16.2301 20.24 15.3801 19.23 15.2601Z" fill="#828282"/>
  </g>
  <defs>
    <clipPath id="clip0_1_61">
      <rect width="24" height="24" fill="white"/>
    </clipPath>
  </defs>
</svg>